<mxfile host="Electron" agent="Mozilla/5.0 (Macintosh; Intel Mac OS X 10_15_7) AppleWebKit/537.36 (KHTML, like Gecko) draw.io/25.0.2 Chrome/128.0.6613.186 Electron/32.2.5 Safari/537.36" version="25.0.2">
  <diagram id="C5RBs43oDa-KdzZeNtuy" name="Page-1">
    <mxGraphModel dx="1985" dy="1045" grid="0" gridSize="10" guides="1" tooltips="1" connect="1" arrows="1" fold="1" page="1" pageScale="1" pageWidth="827" pageHeight="1169" math="0" shadow="0">
      <root>
        <mxCell id="WIyWlLk6GJQsqaUBKTNV-0" />
        <mxCell id="WIyWlLk6GJQsqaUBKTNV-1" parent="WIyWlLk6GJQsqaUBKTNV-0" />
        <mxCell id="FSEgTZkNE_-apT6jtSsS-8" value="" style="verticalLabelPosition=bottom;verticalAlign=top;html=1;shape=mxgraph.flowchart.on-page_reference;rounded=0;labelBackgroundColor=none;fillColor=#000000;" vertex="1" parent="WIyWlLk6GJQsqaUBKTNV-1">
          <mxGeometry x="150" y="40" width="20" height="20" as="geometry" />
        </mxCell>
        <mxCell id="FSEgTZkNE_-apT6jtSsS-9" value="Display Public timeline&amp;nbsp;" style="rounded=1;whiteSpace=wrap;html=1;arcSize=40;html=1;glass=0;shadow=0;labelBackgroundColor=none;fillColor=#f5f5f5;fontColor=#333333;strokeColor=#666666;" vertex="1" parent="WIyWlLk6GJQsqaUBKTNV-1">
          <mxGeometry x="100" y="110" width="120" height="40" as="geometry" />
        </mxCell>
        <mxCell id="FSEgTZkNE_-apT6jtSsS-10" value="Login" style="rounded=1;whiteSpace=wrap;html=1;arcSize=40;html=1;glass=0;shadow=0;labelBackgroundColor=none;fillColor=#f5f5f5;fontColor=#333333;strokeColor=#666666;" vertex="1" parent="WIyWlLk6GJQsqaUBKTNV-1">
          <mxGeometry x="100" y="190" width="120" height="40" as="geometry" />
        </mxCell>
        <mxCell id="FSEgTZkNE_-apT6jtSsS-12" value="Succesful?" style="rhombus;whiteSpace=wrap;html=1;rounded=0;labelBackgroundColor=none;fillColor=#f5f5f5;fontColor=#333333;strokeColor=#666666;" vertex="1" parent="WIyWlLk6GJQsqaUBKTNV-1">
          <mxGeometry x="110" y="270" width="100" height="40" as="geometry" />
        </mxCell>
        <mxCell id="FSEgTZkNE_-apT6jtSsS-13" value="Display Public timeline&amp;nbsp;" style="rounded=1;whiteSpace=wrap;html=1;arcSize=40;html=1;glass=0;shadow=0;labelBackgroundColor=none;fillColor=#f5f5f5;fontColor=#333333;strokeColor=#666666;" vertex="1" parent="WIyWlLk6GJQsqaUBKTNV-1">
          <mxGeometry x="20" y="380" width="120" height="40" as="geometry" />
        </mxCell>
        <mxCell id="FSEgTZkNE_-apT6jtSsS-14" value="Type Cheep (always limited to &amp;lt;= 160 characters)" style="rounded=1;whiteSpace=wrap;html=1;arcSize=40;html=1;glass=0;shadow=0;labelBackgroundColor=none;fillColor=#f5f5f5;fontColor=#333333;strokeColor=#666666;" vertex="1" parent="WIyWlLk6GJQsqaUBKTNV-1">
          <mxGeometry x="80" y="480" width="160" height="40" as="geometry" />
        </mxCell>
        <mxCell id="FSEgTZkNE_-apT6jtSsS-15" value="Share Cheep" style="rounded=1;whiteSpace=wrap;html=1;arcSize=40;html=1;glass=0;shadow=0;labelBackgroundColor=none;fillColor=#f5f5f5;fontColor=#333333;strokeColor=#666666;" vertex="1" parent="WIyWlLk6GJQsqaUBKTNV-1">
          <mxGeometry x="100" y="560.5" width="120" height="40" as="geometry" />
        </mxCell>
        <mxCell id="FSEgTZkNE_-apT6jtSsS-16" value="" style="endArrow=classic;html=1;rounded=0;entryX=0.5;entryY=0;entryDx=0;entryDy=0;labelBackgroundColor=none;fontColor=default;" edge="1" parent="WIyWlLk6GJQsqaUBKTNV-1" target="FSEgTZkNE_-apT6jtSsS-9">
          <mxGeometry width="50" height="50" relative="1" as="geometry">
            <mxPoint x="160" y="60" as="sourcePoint" />
            <mxPoint x="190" y="120" as="targetPoint" />
          </mxGeometry>
        </mxCell>
        <mxCell id="FSEgTZkNE_-apT6jtSsS-17" value="" style="endArrow=classic;html=1;rounded=0;labelBackgroundColor=none;fontColor=default;" edge="1" parent="WIyWlLk6GJQsqaUBKTNV-1">
          <mxGeometry width="50" height="50" relative="1" as="geometry">
            <mxPoint x="159.76" y="150" as="sourcePoint" />
            <mxPoint x="160" y="190" as="targetPoint" />
          </mxGeometry>
        </mxCell>
        <mxCell id="FSEgTZkNE_-apT6jtSsS-18" value="" style="endArrow=classic;html=1;rounded=0;labelBackgroundColor=none;fontColor=default;" edge="1" parent="WIyWlLk6GJQsqaUBKTNV-1">
          <mxGeometry width="50" height="50" relative="1" as="geometry">
            <mxPoint x="159.76" y="230" as="sourcePoint" />
            <mxPoint x="160" y="270" as="targetPoint" />
          </mxGeometry>
        </mxCell>
        <mxCell id="FSEgTZkNE_-apT6jtSsS-19" value="" style="endArrow=classic;html=1;rounded=0;labelBackgroundColor=none;fontColor=default;" edge="1" parent="WIyWlLk6GJQsqaUBKTNV-1">
          <mxGeometry width="50" height="50" relative="1" as="geometry">
            <mxPoint x="159.76" y="310" as="sourcePoint" />
            <mxPoint x="80" y="380" as="targetPoint" />
            <Array as="points">
              <mxPoint x="160" y="340" />
              <mxPoint x="80" y="340" />
            </Array>
          </mxGeometry>
        </mxCell>
        <mxCell id="FSEgTZkNE_-apT6jtSsS-20" value="" style="endArrow=classic;html=1;rounded=0;labelBackgroundColor=none;fontColor=default;" edge="1" parent="WIyWlLk6GJQsqaUBKTNV-1">
          <mxGeometry width="50" height="50" relative="1" as="geometry">
            <mxPoint x="79.57" y="420" as="sourcePoint" />
            <mxPoint x="160" y="480" as="targetPoint" />
            <Array as="points">
              <mxPoint x="80" y="450" />
              <mxPoint x="160" y="450" />
            </Array>
          </mxGeometry>
        </mxCell>
        <mxCell id="FSEgTZkNE_-apT6jtSsS-21" value="" style="endArrow=classic;html=1;rounded=0;labelBackgroundColor=none;fontColor=default;" edge="1" parent="WIyWlLk6GJQsqaUBKTNV-1">
          <mxGeometry width="50" height="50" relative="1" as="geometry">
            <mxPoint x="159.76" y="520" as="sourcePoint" />
            <mxPoint x="160" y="560" as="targetPoint" />
          </mxGeometry>
        </mxCell>
        <mxCell id="FSEgTZkNE_-apT6jtSsS-22" value="Yes" style="text;html=1;align=center;verticalAlign=middle;whiteSpace=wrap;rounded=0;labelBackgroundColor=none;" vertex="1" parent="WIyWlLk6GJQsqaUBKTNV-1">
          <mxGeometry x="143" y="302" width="60" height="30" as="geometry" />
        </mxCell>
        <mxCell id="FSEgTZkNE_-apT6jtSsS-23" value="" style="endArrow=classic;html=1;rounded=0;labelBackgroundColor=none;fontColor=default;" edge="1" parent="WIyWlLk6GJQsqaUBKTNV-1">
          <mxGeometry width="50" height="50" relative="1" as="geometry">
            <mxPoint x="210" y="289.76" as="sourcePoint" />
            <mxPoint x="220" y="210" as="targetPoint" />
            <Array as="points">
              <mxPoint x="280" y="290" />
              <mxPoint x="280" y="210" />
            </Array>
          </mxGeometry>
        </mxCell>
        <mxCell id="FSEgTZkNE_-apT6jtSsS-24" value="No" style="text;html=1;align=center;verticalAlign=middle;whiteSpace=wrap;rounded=0;labelBackgroundColor=none;" vertex="1" parent="WIyWlLk6GJQsqaUBKTNV-1">
          <mxGeometry x="190" y="265" width="60" height="30" as="geometry" />
        </mxCell>
        <mxCell id="FSEgTZkNE_-apT6jtSsS-26" value="" style="verticalLabelPosition=bottom;verticalAlign=top;html=1;shape=mxgraph.flowchart.on-page_reference;fillColor=none;rounded=0;labelBackgroundColor=none;" vertex="1" parent="WIyWlLk6GJQsqaUBKTNV-1">
          <mxGeometry x="150" y="720" width="20" height="20" as="geometry" />
        </mxCell>
        <mxCell id="FSEgTZkNE_-apT6jtSsS-27" value="" style="verticalLabelPosition=bottom;verticalAlign=top;html=1;shape=mxgraph.flowchart.on-page_reference;rounded=0;labelBackgroundColor=none;fillColor=#000000;" vertex="1" parent="WIyWlLk6GJQsqaUBKTNV-1">
          <mxGeometry x="155" y="725" width="10" height="10" as="geometry" />
        </mxCell>
        <mxCell id="FSEgTZkNE_-apT6jtSsS-28" value="" style="endArrow=classic;html=1;rounded=0;labelBackgroundColor=none;fontColor=default;" edge="1" parent="WIyWlLk6GJQsqaUBKTNV-1">
          <mxGeometry width="50" height="50" relative="1" as="geometry">
            <mxPoint x="159.88" y="600" as="sourcePoint" />
            <mxPoint x="160.12" y="640" as="targetPoint" />
          </mxGeometry>
        </mxCell>
        <mxCell id="FSEgTZkNE_-apT6jtSsS-55" value="Cheep is displayed at the top of timelines above other cheeps&amp;nbsp;&amp;nbsp;" style="rounded=1;whiteSpace=wrap;html=1;arcSize=40;html=1;glass=0;shadow=0;labelBackgroundColor=none;fillColor=#f5f5f5;fontColor=#333333;strokeColor=#666666;" vertex="1" parent="WIyWlLk6GJQsqaUBKTNV-1">
          <mxGeometry x="65" y="640" width="190" height="40" as="geometry" />
        </mxCell>
        <mxCell id="FSEgTZkNE_-apT6jtSsS-56" value="" style="endArrow=classic;html=1;rounded=0;labelBackgroundColor=none;fontColor=default;" edge="1" parent="WIyWlLk6GJQsqaUBKTNV-1">
          <mxGeometry width="50" height="50" relative="1" as="geometry">
            <mxPoint x="159.67" y="680" as="sourcePoint" />
            <mxPoint x="159.91" y="720" as="targetPoint" />
          </mxGeometry>
        </mxCell>
        <mxCell id="FSEgTZkNE_-apT6jtSsS-65" value="" style="endArrow=classic;html=1;rounded=0;labelBackgroundColor=none;fontColor=default;" edge="1" parent="WIyWlLk6GJQsqaUBKTNV-1">
          <mxGeometry width="50" height="50" relative="1" as="geometry">
            <mxPoint x="159.76" y="310" as="sourcePoint" />
            <mxPoint x="240" y="380" as="targetPoint" />
            <Array as="points">
              <mxPoint x="160" y="340" />
              <mxPoint x="240" y="340" />
            </Array>
          </mxGeometry>
        </mxCell>
        <mxCell id="FSEgTZkNE_-apT6jtSsS-66" value="Display My timeline" style="rounded=1;whiteSpace=wrap;html=1;arcSize=40;html=1;glass=0;shadow=0;labelBackgroundColor=none;fillColor=#f5f5f5;fontColor=#333333;strokeColor=#666666;" vertex="1" parent="WIyWlLk6GJQsqaUBKTNV-1">
          <mxGeometry x="180" y="380" width="120" height="40" as="geometry" />
        </mxCell>
        <mxCell id="FSEgTZkNE_-apT6jtSsS-67" value="" style="endArrow=classic;html=1;rounded=0;labelBackgroundColor=none;fontColor=default;" edge="1" parent="WIyWlLk6GJQsqaUBKTNV-1">
          <mxGeometry width="50" height="50" relative="1" as="geometry">
            <mxPoint x="240" y="420" as="sourcePoint" />
            <mxPoint x="160" y="480" as="targetPoint" />
            <Array as="points">
              <mxPoint x="240.43" y="450" />
              <mxPoint x="160" y="450" />
            </Array>
          </mxGeometry>
        </mxCell>
      </root>
    </mxGraphModel>
  </diagram>
</mxfile>
